<svg width="500" height="500" viewBox="0 0 500 500" fill="none" xmlns="http://www.w3.org/2000/svg">
<path opacity="0.15" d="M417.935 355.857L258.483 447.924C256.072 449.33 252.924 450 249.776 450C246.628 450 243.479 449.33 241.068 447.924L81.617 355.857C79.2056 354.484 78 352.675 78 350.833C78 349.527 78.6363 348.187 79.909 347.049C80.3778 346.613 80.9472 346.178 81.617 345.809L241.068 253.776C245.857 250.996 253.661 250.996 258.483 253.776L417.935 345.809C422.724 348.589 422.724 353.114 417.935 355.857Z" fill="#6B99D1"/>
<path d="M417.935 339.449L258.483 431.482C256.072 432.889 252.924 433.559 249.776 433.559C246.628 433.559 243.513 432.889 241.102 431.516L81.617 339.449C79.2056 338.042 78 336.234 78 334.425C78 332.583 79.2056 330.775 81.617 329.402L106.936 314.799L241.068 237.335C245.857 234.555 253.661 234.555 258.483 237.335L417.935 329.402C422.724 332.148 422.724 336.669 417.935 339.449Z" fill="#DCEEFF"/>
<path d="M249.776 397.254V433.559C246.628 433.559 243.513 432.889 241.102 431.516L81.617 339.449C79.2056 338.042 78 336.234 78 334.425V302.977C78 301.671 78.6363 300.331 79.909 299.193L106.936 314.799L249.776 397.254Z" fill="#A5CBFA"/>
<path d="M249.775 397.254V433.559C252.923 433.559 256.038 432.889 258.45 431.516L417.934 339.449C420.345 338.042 421.551 336.234 421.551 334.425V302.977C421.551 301.671 420.915 300.331 419.642 299.193L392.615 314.799L249.775 397.254Z" fill="#C8E2FF"/>
<path d="M417.935 308.001L258.483 400.068C256.072 401.474 252.924 402.144 249.776 402.144C246.628 402.144 243.479 401.474 241.068 400.068L81.617 308.001C79.2056 306.628 78 304.819 78 302.977C78 301.671 78.6363 300.331 79.909 299.193C80.3778 298.757 80.9472 298.322 81.617 297.954L241.068 205.92C245.857 203.14 253.661 203.14 258.483 205.92L417.935 297.954C422.724 300.733 422.724 305.255 417.935 308.001Z" fill="#DCEEFF"/>
<path d="M249.766 207.186C252.438 207.186 255.007 207.782 256.812 208.824L416.257 300.854C417.68 301.681 418.182 302.525 418.182 302.997C418.182 303.463 417.68 304.293 416.263 305.104L256.799 397.181C255.034 398.209 252.475 398.798 249.779 398.798C247.083 398.798 244.524 398.209 242.746 397.171L83.2782 305.094C82.0926 304.417 81.3524 303.61 81.3524 302.98C81.3524 302.619 81.6472 302.136 82.1864 301.654C82.5146 301.349 82.8662 301.095 83.2949 300.86L242.753 208.824C244.538 207.779 247.093 207.186 249.766 207.186ZM249.766 203.837C246.614 203.837 243.463 204.533 241.068 205.923L81.617 297.957C80.9472 298.325 80.3778 298.76 79.909 299.196C78.6363 300.335 78 301.674 78 302.98C78 304.822 79.2056 306.631 81.617 308.004L241.068 400.071C243.479 401.477 246.628 402.147 249.776 402.147C252.924 402.147 256.072 401.477 258.483 400.071L417.935 308.004C422.724 305.258 422.724 300.736 417.935 297.957L258.483 205.923C256.072 204.53 252.917 203.837 249.766 203.837Z" fill="white"/>
<path d="M243.969 227.796L119.529 299.641C116.327 301.49 116.327 304.491 119.529 306.34L243.972 378.185C247.177 380.033 252.371 380.033 255.573 378.185L380.013 306.34C383.214 304.491 383.214 301.49 380.013 299.641L255.573 227.796C252.368 225.948 247.17 225.948 243.969 227.796Z" fill="#8DB5E7"/>
<path d="M380.009 299.645L255.57 227.8C253.966 226.875 251.869 226.41 249.769 226.41V232.304L379.008 306.919L380.009 306.343C383.214 304.491 383.214 301.493 380.009 299.645Z" fill="#719DD3"/>
<path d="M249.769 226.41C247.669 226.41 245.569 226.872 243.969 227.8L119.529 299.645C116.327 301.493 116.327 304.494 119.529 306.343L120.53 306.919L249.772 232.304L249.769 226.41Z" fill="#719DD3"/>
<g opacity="0.3">
<path d="M208.951 263.719L249.753 287.29L249.766 97.1354L208.954 73.5745L208.951 263.719Z" fill="#138DFD"/>
<path d="M249.753 287.29L290.579 263.719L290.562 73.571L249.767 97.1353L249.753 287.29Z" fill="#5AB0FF"/>
<path d="M290.561 73.571L249.753 50L208.954 73.5743L249.766 97.1353L290.561 73.571Z" fill="#5AB0FF"/>
<path d="M249.754 287.29C249.754 287.29 249.161 286.801 248.803 285.88C248.354 284.959 248.538 283.609 248.508 281.891C248.521 278.455 248.538 273.545 248.562 267.654C248.622 255.872 248.702 240.165 248.779 224.454C248.977 208.747 249.077 193.036 249.372 181.254C249.61 169.472 249.767 161.618 249.767 161.618C249.767 161.618 249.921 169.472 250.159 181.254C250.454 193.036 250.548 208.747 250.742 224.454C250.816 240.161 250.893 255.872 250.95 267.654C250.97 273.545 250.99 278.455 251.003 281.891C250.973 283.609 251.154 284.959 250.708 285.88C250.347 286.798 249.754 287.29 249.754 287.29Z" fill="white"/>
<path d="M290.56 73.5712C290.516 73.5009 290.704 74.1875 290.566 74.643C290.506 75.229 289.97 75.3128 289.431 75.6678C288.309 76.3041 286.712 77.2184 284.796 78.3136C280.965 80.5106 275.83 83.3942 270.649 86.2007C265.455 88.9805 260.297 91.8272 256.339 93.8065C252.417 95.8461 249.758 97.1322 249.758 97.1322C249.758 97.1322 252.199 95.471 255.927 93.0932C259.621 90.655 264.661 87.6107 269.668 84.4994C274.688 81.4182 279.752 78.4107 283.57 76.1869C285.476 75.0716 287.063 74.1439 288.175 73.4942C288.751 73.2028 289.093 72.7808 289.629 73.022C290.098 73.1359 290.603 73.6449 290.56 73.5712Z" fill="white"/>
</g>
<g opacity="0.6">
<path d="M276.987 302.98L317.786 326.551L317.799 216.594L276.987 193.033V302.98Z" fill="#138DFD"/>
<path d="M317.784 326.551L358.61 302.984L358.597 193.029L317.798 216.594L317.784 326.551Z" fill="#5AB0FF"/>
<path d="M358.598 193.029L317.786 169.462L276.987 193.033L317.799 216.594L358.598 193.029Z" fill="#5AB0FF"/>
<path d="M317.785 326.552C317.785 326.552 317.192 326.123 316.833 325.316C316.388 324.509 316.569 323.33 316.539 321.826C316.552 318.819 316.569 314.525 316.592 309.371C316.659 299.062 316.646 285.317 316.81 271.573C317.004 257.828 317.118 244.083 317.383 233.775C317.63 223.466 317.795 216.594 317.795 216.594C317.795 216.594 317.959 223.466 318.203 233.775C318.468 244.083 318.578 257.828 318.766 271.573C318.927 285.317 318.906 299.062 318.973 309.371C318.997 314.525 319.014 318.819 319.027 321.826C318.997 323.33 319.178 324.509 318.732 325.316C318.377 326.123 317.785 326.552 317.785 326.552Z" fill="white"/>
<path d="M358.597 193.029C358.553 192.959 358.741 193.649 358.607 194.101C358.547 194.687 358.011 194.771 357.472 195.126C356.353 195.762 354.755 196.677 352.836 197.772C349.005 199.969 343.871 202.852 338.69 205.659C333.495 208.439 328.338 211.285 324.382 213.265C320.461 215.304 317.801 216.59 317.801 216.59C317.801 216.59 320.243 214.929 323.97 212.551C327.661 210.113 332.705 207.069 337.708 203.957C342.729 200.876 347.793 197.869 351.611 195.645C353.516 194.53 355.107 193.602 356.219 192.952C356.795 192.661 357.137 192.239 357.673 192.48C358.135 192.594 358.637 193.103 358.597 193.029Z" fill="white"/>
</g>
<g opacity="0.6">
<path d="M140.916 302.987L181.715 326.558L181.728 200.886L140.916 177.322V302.987Z" fill="#138DFD"/>
<path d="M181.714 326.558L222.54 302.99L222.527 177.322L181.728 200.886L181.714 326.558Z" fill="#5AB0FF"/>
<path d="M222.527 177.322L181.715 153.751L140.916 177.322L181.728 200.887L222.527 177.322Z" fill="#5AB0FF"/>
<path d="M181.715 326.558C181.715 326.558 181.122 326.069 180.764 325.148C180.315 324.227 180.499 322.878 180.469 321.159C180.483 317.723 180.5 312.814 180.523 306.922C180.583 295.14 180.664 279.433 180.741 263.722C180.938 248.015 181.039 232.304 181.333 220.522C181.571 208.74 181.729 200.886 181.729 200.886C181.729 200.886 181.883 208.74 182.12 220.522C182.412 232.304 182.509 248.012 182.703 263.722C182.777 279.43 182.854 295.14 182.911 306.922C182.931 312.814 182.951 317.723 182.964 321.159C182.934 322.878 183.118 324.227 182.67 325.148C182.308 326.069 181.715 326.558 181.715 326.558Z" fill="white"/>
<path d="M222.527 177.322C222.484 177.252 222.671 177.942 222.537 178.394C222.477 178.98 221.941 179.064 221.402 179.419C220.28 180.055 218.682 180.969 216.767 182.065C212.935 184.262 207.798 187.145 202.62 189.952C197.426 192.731 192.268 195.578 188.309 197.558C184.388 199.597 181.728 200.883 181.728 200.883C181.728 200.883 184.17 199.222 187.897 196.844C191.588 194.406 196.632 191.362 201.635 188.25C206.656 185.169 211.72 182.162 215.538 179.938C217.443 178.823 219.034 177.895 220.146 177.245C220.722 176.954 221.064 176.532 221.599 176.773C222.065 176.887 222.571 177.393 222.527 177.322Z" fill="white"/>
</g>
<path d="M208.963 342.262L249.762 365.833L249.779 271.572L208.966 248.008L208.963 342.262Z" fill="#138DFD"/>
<path d="M249.762 365.833L290.591 342.262L290.574 248.008L249.779 271.572L249.762 365.833Z" fill="#5AB0FF"/>
<path d="M290.574 248.008L249.762 224.437L208.967 248.008L249.779 271.573L290.574 248.008Z" fill="#5AB0FF"/>
<path d="M249.761 365.833C249.761 365.833 249.169 365.465 248.81 364.775C248.365 364.085 248.546 363.07 248.516 361.784C248.529 359.205 248.546 355.525 248.569 351.107C248.639 342.269 248.623 330.487 248.787 318.705C248.981 306.922 249.095 295.14 249.36 286.302C249.607 277.467 249.775 271.576 249.775 271.576C249.775 271.576 249.939 277.467 250.183 286.302C250.448 295.14 250.559 306.922 250.749 318.705C250.91 330.487 250.89 342.269 250.957 351.107C250.977 355.525 250.997 359.209 251.011 361.784C250.981 363.073 251.161 364.088 250.716 364.775C250.354 365.465 249.761 365.833 249.761 365.833Z" fill="white"/>
<path d="M290.575 248.009C290.531 247.938 290.719 248.628 290.581 249.08C290.521 249.666 289.985 249.75 289.446 250.105C288.327 250.741 286.727 251.656 284.811 252.751C280.979 254.948 275.845 257.831 270.664 260.638C265.47 263.418 260.312 266.264 256.353 268.244C252.432 270.283 249.772 271.569 249.772 271.569C249.772 271.569 252.214 269.908 255.942 267.534C259.636 265.096 264.676 262.051 269.683 258.94C274.703 255.855 279.767 252.851 283.585 250.631C285.491 249.516 287.078 248.588 288.19 247.938C288.766 247.647 289.108 247.225 289.644 247.466C290.113 247.573 290.618 248.082 290.575 248.009Z" fill="white"/>
</svg>
