<svg width="500" height="500" viewBox="0 0 500 500" fill="none" xmlns="http://www.w3.org/2000/svg">
<path d="M315.758 299.498L142.542 399.473L136.613 402.894L129.54 398.829C128.698 398.327 128 397.128 128 396.143V251.952C128 251.381 128.197 250.752 128.519 250.199C128.859 249.626 129.289 249.143 129.79 248.856L305.567 147.376C306.409 146.875 307.806 146.875 308.665 147.376L315.703 151.441L315.758 299.498Z" fill="#138DFD"/>
<path d="M142.542 258.293V399.473L136.613 402.894L129.54 398.829C128.698 398.327 128 397.128 128 396.143V251.952C128 251.381 128.197 250.752 128.519 250.199L142.542 258.293Z" fill="#138DFD"/>
<path d="M139.925 251.406L312.467 151.787C315.037 150.304 317.12 151.507 317.12 154.473V294.917C317.12 297.882 315.037 301.491 312.467 302.975L139.925 402.593C137.355 404.077 135.272 402.874 135.272 399.907V259.464C135.272 256.497 137.357 252.891 139.925 251.406Z" fill="#57AEFF"/>
<path opacity="0.2" d="M156.744 258.42L336.193 154.814C338.863 153.271 341.031 154.523 341.031 157.607V303.672C341.031 306.756 338.863 310.508 336.193 312.052L156.745 415.657C154.073 417.201 151.907 415.949 151.907 412.863V266.8C151.907 263.714 154.073 259.964 156.744 258.42Z" fill="#E9FFFB"/>
<path d="M156.744 258.42L336.193 154.814C338.863 153.271 341.031 154.523 341.031 157.607V303.672C341.031 306.756 338.863 310.508 336.193 312.052L156.745 415.657C154.073 417.2 151.907 415.949 151.907 412.863V266.8C151.907 263.714 154.073 259.963 156.744 258.42Z" stroke="#DCEEFF" stroke-width="1.86238" stroke-miterlimit="10"/>
<path d="M183.222 263.103C183.222 264.595 184.561 265.031 186.212 264.076L222.959 241.635C224.609 240.681 225.948 238.699 225.948 237.208C225.948 235.718 224.609 235.282 222.957 236.236L186.212 258.678C184.561 259.632 183.222 261.613 183.222 263.103Z" fill="#DCEEFF"/>
<path d="M183.222 275.03C183.222 276.52 184.561 276.956 186.212 276.002L203.002 265.397C204.652 264.444 205.991 262.462 205.991 260.972C205.991 259.48 204.652 259.044 203 260L186.212 270.603C184.561 271.557 183.222 273.538 183.222 275.03Z" fill="#DCEEFF"/>
<path d="M386.313 199.17L386.313 205.455L369.505 215.159L369.506 208.875L386.313 199.17ZM373.668 198.247L381.351 193.81L381.35 225.325C381.35 226.29 381.457 226.968 381.67 227.358C381.901 227.738 382.239 227.902 382.684 227.851C383.128 227.779 383.689 227.548 384.365 227.158C384.845 226.88 385.272 226.613 385.645 226.357C386.036 226.069 386.365 225.818 386.632 225.602L386.659 232.117C386.001 232.744 385.289 233.35 384.524 233.935C383.76 234.52 382.915 235.08 381.99 235.614C380.3 236.59 378.824 237.124 377.561 237.216C376.316 237.278 375.356 236.785 374.68 235.737C374.004 234.69 373.667 232.996 373.667 230.654L373.668 198.247Z" fill="#138DFD"/>
<path d="M359.714 238.649C359.714 238.012 359.554 237.529 359.234 237.201C358.914 236.872 358.318 236.744 357.447 236.816C356.593 236.857 355.357 237.16 353.738 237.725C352.28 238.197 350.919 238.521 349.657 238.695C348.412 238.839 347.327 238.777 346.402 238.51C345.495 238.233 344.783 237.699 344.268 236.909C343.752 236.097 343.494 234.983 343.494 233.566C343.494 232.17 343.752 230.706 344.268 229.176C344.802 227.636 345.557 226.111 346.536 224.601C347.532 223.061 348.741 221.613 350.164 220.258C351.605 218.871 353.223 217.66 355.019 216.622C357.527 215.174 359.679 214.394 361.476 214.281C363.29 214.158 364.677 214.63 365.637 215.698C366.615 216.735 367.105 218.28 367.104 220.334L359.421 224.771C359.421 223.908 359.261 223.23 358.941 222.737C358.639 222.214 358.158 221.947 357.5 221.936C356.86 221.895 356.024 222.173 354.993 222.768C354.139 223.261 353.401 223.862 352.778 224.57C352.156 225.259 351.676 225.988 351.338 226.758C351.017 227.497 350.857 228.206 350.857 228.883C350.857 229.397 350.946 229.808 351.124 230.116C351.32 230.393 351.631 230.573 352.058 230.655C352.485 230.737 353.036 230.727 353.712 230.624C354.405 230.49 355.259 230.244 356.273 229.884C358.354 229.176 360.212 228.75 361.849 228.606C363.485 228.441 364.783 228.76 365.744 229.561C366.704 230.341 367.184 231.82 367.184 233.997C367.184 235.475 366.899 236.995 366.33 238.556C365.761 240.117 364.943 241.667 363.876 243.208C362.809 244.728 361.528 246.176 360.034 247.552C358.558 248.897 356.895 250.103 355.045 251.171C352.359 252.722 350.083 253.482 348.215 253.451C346.366 253.41 344.961 252.815 344 251.665C343.058 250.484 342.587 248.99 342.587 247.182L349.87 242.977C349.905 244.168 350.172 244.99 350.67 245.442C351.186 245.883 351.835 246.042 352.618 245.919C353.418 245.786 354.28 245.452 355.205 244.918C356.201 244.343 357.028 243.711 357.686 243.023C358.345 242.315 358.843 241.596 359.18 240.867C359.536 240.107 359.714 239.367 359.714 238.649Z" fill="#138DFD"/>
<path d="M330.448 257.241L330.449 242.393C330.449 241.325 330.297 240.498 329.995 239.913C329.693 239.307 329.221 238.973 328.581 238.912C327.959 238.84 327.15 239.092 326.154 239.667C325.3 240.16 324.562 240.76 323.939 241.469C323.317 242.157 322.836 242.917 322.499 243.749C322.161 244.56 321.992 245.386 321.992 246.228L314.308 250.665C314.308 249.248 314.593 247.738 315.162 246.136C315.731 244.534 316.558 242.937 317.643 241.346C318.728 239.734 320.018 238.219 321.512 236.802C323.023 235.374 324.713 234.122 326.581 233.043C328.822 231.749 330.814 231.03 332.556 230.887C334.299 230.743 335.669 231.246 336.665 232.396C337.679 233.536 338.185 235.4 338.185 237.987L338.185 252.25C338.185 254.078 338.283 255.521 338.478 256.579C338.674 257.616 338.958 258.458 339.332 259.105L339.332 259.628L331.568 264.111C331.195 263.423 330.91 262.458 330.715 261.215C330.537 259.942 330.448 258.617 330.448 257.241ZM331.462 243.871L331.515 248.862L327.22 251.342C326.206 251.927 325.326 252.569 324.579 253.268C323.832 253.966 323.218 254.7 322.738 255.47C322.258 256.22 321.902 256.98 321.671 257.75C321.458 258.51 321.351 259.27 321.351 260.03C321.351 260.789 321.502 261.39 321.804 261.832C322.107 262.253 322.542 262.473 323.112 262.494C323.681 262.494 324.348 262.273 325.112 261.832C326.268 261.164 327.273 260.317 328.127 259.29C328.981 258.263 329.639 257.226 330.101 256.179C330.582 255.121 330.831 254.238 330.848 253.529L332.876 256.117C332.591 257.123 332.2 258.222 331.702 259.413C331.222 260.594 330.608 261.801 329.861 263.033C329.114 264.245 328.216 265.41 327.166 266.529C326.117 267.628 324.872 268.593 323.431 269.425C321.6 270.483 319.937 271.022 318.443 271.043C316.966 271.033 315.793 270.529 314.921 269.533C314.068 268.507 313.641 267.028 313.641 265.097C313.641 263.352 313.925 261.637 314.495 259.953C315.064 258.269 315.9 256.646 317.003 255.085C318.123 253.494 319.519 251.979 321.191 250.541C322.863 249.083 324.802 247.717 327.007 246.444L331.462 243.871Z" fill="#138DFD"/>
<path d="M294.274 240.792L294.272 285.645L286.269 290.266L286.27 245.413L294.274 240.792ZM309.747 251.019L309.746 258.227L292.085 268.425L292.086 261.216L309.747 251.019ZM311.615 230.779L311.614 238.018L292.086 249.294L292.086 242.055L311.615 230.779Z" fill="#138DFD"/>
<path fill-rule="evenodd" clip-rule="evenodd" d="M233.738 163.611C230.842 168.626 232.892 173.159 236.987 170.795L260.361 157.299L260.356 299.921C260.356 302.852 262.414 304.04 264.952 302.574L301.719 281.346C304.257 279.88 306.315 276.315 306.315 273.384L306.32 130.763L328.537 117.935C332.632 115.57 334.683 108.669 331.788 106.997L287.639 81.5085C284.947 79.954 280.582 82.4746 277.889 87.1383L233.738 163.611Z" fill="url(#paint0_linear_1_1819)"/>
<path d="M339.063 370.146C339.063 369.55 338.914 369.098 338.614 368.791C338.314 368.483 337.756 368.363 336.94 368.43C336.141 368.469 334.984 368.752 333.468 369.281C332.103 369.724 330.829 370.026 329.647 370.19C328.481 370.325 327.466 370.267 326.6 370.017C325.75 369.757 325.084 369.257 324.602 368.517C324.119 367.758 323.877 366.715 323.877 365.388C323.877 364.08 324.119 362.71 324.602 361.278C325.101 359.836 325.809 358.408 326.725 356.995C327.657 355.552 328.79 354.197 330.122 352.928C331.471 351.63 332.986 350.495 334.668 349.524C337.016 348.168 339.031 347.438 340.713 347.332C342.411 347.216 343.71 347.659 344.609 348.658C345.525 349.629 345.983 351.076 345.983 352.999L338.789 357.153C338.789 356.345 338.639 355.711 338.339 355.249C338.056 354.759 337.607 354.509 336.991 354.499C336.391 354.461 335.609 354.721 334.643 355.278C333.844 355.74 333.152 356.302 332.57 356.966C331.987 357.61 331.537 358.292 331.221 359.013C330.921 359.706 330.771 360.369 330.771 361.004C330.771 361.484 330.854 361.869 331.021 362.157C331.204 362.417 331.495 362.585 331.895 362.662C332.295 362.739 332.811 362.729 333.444 362.633C334.093 362.508 334.892 362.277 335.842 361.941C337.79 361.277 339.53 360.878 341.062 360.744C342.594 360.59 343.809 360.888 344.709 361.638C345.608 362.368 346.057 363.753 346.057 365.791C346.057 367.175 345.791 368.598 345.258 370.06C344.725 371.521 343.959 372.973 342.96 374.415C341.961 375.838 340.762 377.193 339.363 378.482C337.981 379.741 336.424 380.871 334.692 381.871C332.178 383.323 330.046 384.034 328.298 384.005C326.566 383.967 325.25 383.409 324.351 382.333C323.469 381.227 323.028 379.828 323.028 378.136L329.847 374.199C329.88 375.314 330.13 376.083 330.596 376.506C331.079 376.92 331.686 377.069 332.419 376.953C333.168 376.828 333.976 376.516 334.842 376.016C335.775 375.477 336.549 374.886 337.165 374.242C337.781 373.579 338.247 372.906 338.564 372.223C338.897 371.512 339.063 370.819 339.063 370.146Z" fill="#138DFD"/>
<path d="M320.355 358.365L320.355 364.249L304.619 373.335L304.619 367.451L320.355 358.365ZM308.516 357.5L315.71 353.347L315.709 382.853C315.709 383.756 315.809 384.391 316.009 384.756C316.225 385.112 316.541 385.266 316.958 385.218C317.374 385.15 317.898 384.934 318.531 384.569C318.981 384.309 319.38 384.059 319.73 383.819C320.097 383.55 320.405 383.314 320.654 383.112L320.679 389.212C320.063 389.799 319.397 390.366 318.681 390.914C317.965 391.462 317.174 391.986 316.308 392.486C314.726 393.399 313.344 393.899 312.162 393.986C310.996 394.044 310.097 393.582 309.464 392.602C308.831 391.621 308.515 390.035 308.515 387.843L308.516 357.5Z" fill="#138DFD"/>
<path d="M295.452 395.327C295.452 394.731 295.302 394.279 295.002 393.972C294.703 393.664 294.145 393.544 293.329 393.611C292.53 393.65 291.372 393.933 289.857 394.462C288.492 394.904 287.218 395.207 286.036 395.371C284.87 395.505 283.854 395.448 282.988 395.198C282.139 394.938 281.473 394.438 280.99 393.698C280.507 392.939 280.266 391.895 280.266 390.569C280.266 389.261 280.507 387.891 280.99 386.459C281.49 385.016 282.198 383.589 283.114 382.175C284.046 380.733 285.179 379.378 286.511 378.109C287.859 376.811 289.375 375.676 291.057 374.705C293.405 373.349 295.419 372.619 297.101 372.513C298.8 372.397 300.099 372.84 300.998 373.839C301.914 374.81 302.371 376.257 302.371 378.18L295.178 382.334C295.178 381.526 295.028 380.892 294.728 380.43C294.445 379.94 293.996 379.69 293.379 379.68C292.78 379.642 291.997 379.901 291.032 380.459C290.232 380.921 289.541 381.483 288.958 382.146C288.376 382.791 287.926 383.473 287.609 384.194C287.31 384.887 287.16 385.55 287.16 386.184C287.16 386.665 287.243 387.05 287.41 387.338C287.593 387.598 287.884 387.766 288.284 387.843C288.683 387.92 289.2 387.91 289.832 387.814C290.482 387.689 291.281 387.458 292.23 387.122C294.178 386.458 295.919 386.059 297.451 385.925C298.982 385.771 300.198 386.069 301.097 386.819C301.996 387.549 302.446 388.934 302.446 390.972C302.446 392.356 302.179 393.779 301.646 395.241C301.114 396.702 300.348 398.154 299.348 399.596C298.349 401.019 297.15 402.374 295.751 403.663C294.369 404.922 292.812 406.052 291.081 407.052C288.566 408.504 286.435 409.215 284.686 409.186C282.955 409.148 281.639 408.59 280.74 407.514C279.857 406.408 279.416 405.009 279.416 403.317L286.235 399.38C286.269 400.495 286.518 401.264 286.984 401.687C287.467 402.101 288.075 402.25 288.808 402.134C289.557 402.009 290.365 401.697 291.231 401.197C292.163 400.658 292.937 400.067 293.554 399.423C294.17 398.76 294.636 398.087 294.952 397.404C295.285 396.692 295.452 396 295.452 395.327Z" fill="#138DFD"/>
<path d="M250.817 414.437L250.817 413.831C250.817 411.543 251.1 409.274 251.667 407.024C252.233 404.755 253.057 402.597 254.14 400.549C255.222 398.501 256.554 396.626 258.136 394.925C259.718 393.204 261.533 391.752 263.581 390.569C265.629 389.387 267.453 388.738 269.051 388.622C270.65 388.488 271.99 388.819 273.073 389.617C274.172 390.406 275.004 391.607 275.57 393.222C276.136 394.818 276.419 396.76 276.419 399.049L276.419 399.654C276.419 401.923 276.136 404.192 275.57 406.461C275.004 408.711 274.171 410.874 273.072 412.951C271.99 414.999 270.657 416.873 269.075 418.575C267.493 420.277 265.678 421.719 263.63 422.902C261.582 424.084 259.759 424.743 258.16 424.878C256.578 425.003 255.238 424.671 254.139 423.883C253.056 423.066 252.232 421.859 251.666 420.263C251.1 418.648 250.817 416.706 250.817 414.437ZM258.011 409.678L258.011 410.283C258.011 411.591 258.111 412.754 258.31 413.773C258.51 414.792 258.826 415.61 259.259 416.225C259.709 416.811 260.292 417.138 261.008 417.205C261.724 417.273 262.598 417.008 263.63 416.412C264.63 415.835 265.487 415.1 266.203 414.206C266.919 413.311 267.494 412.316 267.927 411.22C268.36 410.105 268.676 408.923 268.876 407.673C269.092 406.413 269.201 405.13 269.201 403.822L269.201 403.217C269.201 401.947 269.093 400.818 268.876 399.828C268.676 398.808 268.352 397.996 267.902 397.39C267.469 396.756 266.895 396.395 266.179 396.309C265.463 396.222 264.597 396.472 263.581 397.059C262.565 397.645 261.699 398.395 260.983 399.309C260.284 400.212 259.709 401.236 259.26 402.38C258.827 403.496 258.51 404.678 258.311 405.928C258.111 407.159 258.011 408.409 258.011 409.678Z" fill="#138DFD"/>
<path d="M240.026 422.023L247.494 417.711C247.345 420.624 246.67 423.523 245.471 426.407C244.289 429.282 242.632 431.95 240.5 434.411C238.385 436.863 235.838 438.949 232.857 440.67C230.526 442.016 228.436 442.761 226.588 442.906C224.739 443.031 223.157 442.598 221.842 441.608C220.543 440.608 219.552 439.065 218.87 436.979C218.187 434.892 217.846 432.311 217.846 429.235L217.846 426.321C217.846 423.245 218.196 420.264 218.895 417.38C219.611 414.467 220.627 411.756 221.943 409.247C223.275 406.728 224.865 404.463 226.714 402.454C228.562 400.445 230.627 398.781 232.908 397.464C235.939 395.714 238.495 394.873 240.576 394.94C242.675 394.998 244.298 395.81 245.447 397.377C246.613 398.935 247.312 401.069 247.545 403.78L240.052 408.107C239.968 406.463 239.677 405.198 239.177 404.314C238.678 403.41 237.92 402.954 236.905 402.944C235.905 402.906 234.573 403.367 232.908 404.329C231.659 405.05 230.569 405.949 229.636 407.025C228.703 408.102 227.921 409.371 227.288 410.833C226.655 412.294 226.181 413.953 225.864 415.808C225.564 417.635 225.414 419.663 225.414 421.894L225.414 424.865C225.414 427.037 225.556 428.869 225.839 430.359C226.122 431.83 226.555 432.965 227.137 433.762C227.737 434.532 228.503 434.935 229.435 434.974C230.384 434.983 231.525 434.604 232.857 433.834C234.422 432.931 235.713 431.897 236.729 430.734C237.745 429.57 238.519 428.268 239.052 426.825C239.601 425.374 239.926 423.773 240.026 422.023Z" fill="#138DFD"/>
<path fill-rule="evenodd" clip-rule="evenodd" d="M169.762 426.61C167.052 425.045 168.972 418.583 172.806 416.37L194.69 403.734L194.694 270.203C194.694 267.458 196.621 264.121 198.998 262.749L233.421 242.873C235.797 241.501 237.724 242.613 237.724 245.358L237.72 378.889L258.52 366.879C262.354 364.665 264.274 368.909 261.563 373.605L220.226 445.203C217.705 449.57 213.618 451.93 211.097 450.474L169.762 426.61Z" fill="url(#paint1_linear_1_1819)"/>
<defs>
<linearGradient id="paint0_linear_1_1819" x1="283.341" y1="94.2744" x2="363.198" y2="232.58" gradientUnits="userSpaceOnUse">
<stop stop-color="#138DFD" stop-opacity="0.7"/>
<stop offset="0.640625" stop-color="#138DFD" stop-opacity="0.0672"/>
<stop offset="1" stop-color="#138DFD" stop-opacity="0"/>
</linearGradient>
<linearGradient id="paint1_linear_1_1819" x1="216.202" y1="437.897" x2="141.435" y2="308.407" gradientUnits="userSpaceOnUse">
<stop stop-color="#138DFD" stop-opacity="0.7"/>
<stop offset="0.640625" stop-color="#138DFD" stop-opacity="0.0672"/>
<stop offset="1" stop-color="#138DFD" stop-opacity="0"/>
</linearGradient>
</defs>
</svg>
