<svg width="94" height="40" viewBox="0 0 94 40" fill="none" xmlns="http://www.w3.org/2000/svg">
<g clip-path="url(#clip0_430_8642)">
<rect width="94" height="40" fill="white"/>
<path d="M19.4878 23.5756C19.6374 24.394 20.9738 24.8364 22.3532 24.8364C23.3925 24.8364 24.3906 24.7487 25.4728 24.394L25.9831 27.1376C24.5607 27.7358 23.1383 27.8897 21.8018 27.8897C17.8953 27.8897 15.6879 25.6996 15.6879 22.2467C15.6879 20.0994 17.1103 16.4712 21.4186 16.4712C25.1551 16.4712 26.5775 19.3706 26.5775 22.1357C26.5775 22.7105 26.4934 23.3301 26.4298 23.5737H19.4878V23.5756ZM22.8635 20.7658C22.8635 20.2787 22.5457 19.129 21.2299 19.129C19.9981 19.129 19.5103 20.1462 19.4261 20.7658H22.8654H22.8635Z" fill="#195ED8"/>
<path d="M40.4633 27.8917V17.0031H44.4744V27.8917H40.4633ZM44.4744 14.1972C44.4744 15.3527 43.5772 16.288 42.4688 16.288C41.3604 16.288 40.4633 15.3527 40.4633 14.1972C40.4633 13.0417 41.3604 12.1064 42.4688 12.1064C43.5772 12.1064 44.4744 13.0417 44.4744 14.1972Z" fill="#3A3A3A"/>
<path d="M47.0222 20.7872C47.0222 19.2381 46.9792 17.9774 46.9381 17.0031H50.3979L50.568 18.4411H50.6521C50.9698 17.9754 51.9885 16.7381 53.9642 16.7381C56.4689 16.7381 58.0184 18.4197 58.0184 21.6056V27.8897H54.0072V22.2252C54.0072 20.8086 53.5193 20.0565 52.5212 20.0565C51.6502 20.0565 51.2895 20.6976 51.1194 21.1185C51.0353 21.3172 51.0353 21.6056 51.0353 21.8492V27.8897H47.0241V20.7853L47.0222 20.7872Z" fill="#3A3A3A"/>
<path d="M77.719 23.5756C77.8686 24.394 79.205 24.8364 80.5844 24.8364C81.6237 24.8364 82.6218 24.7487 83.704 24.394L84.2143 27.1376C82.7919 27.7358 81.3695 27.8897 80.033 27.8897C76.1265 27.8897 73.9191 25.6996 73.9191 22.2467C73.9191 20.0994 75.3415 16.4712 79.6499 16.4712C83.3863 16.4712 84.8087 19.3706 84.8087 22.1357C84.8087 22.7105 84.7246 23.3301 84.661 23.5737H77.719V23.5756ZM81.0947 20.7658C81.0947 20.2787 80.7769 19.129 79.4611 19.129C78.2293 19.129 77.7415 20.1462 77.6573 20.7658H81.0966H81.0947Z" fill="#3A3A3A"/>
<path d="M86.6348 20.7424C86.6348 18.8172 86.6142 17.8429 86.5507 17.0031H89.9674L90.0945 19.1056H90.1787C90.7525 17.3129 92.2385 16.7381 93.2141 16.7381C93.5543 16.7381 93.702 16.7381 93.9992 16.8043V20.6781C93.702 20.6118 93.3842 20.5456 92.9375 20.5456C91.5581 20.5456 90.8142 21.1438 90.6665 21.9622C90.6459 22.1395 90.6459 22.3168 90.6459 22.4941V27.8936H86.6348V20.7463V20.7424Z" fill="#3A3A3A"/>
<path d="M9.99803 12.9755H4.52145L0 27.8917H4.22425L7.06908 15.7872L10.3588 27.8917H14.8167L9.99803 12.9755Z" fill="#195ED8"/>
<path d="M28.4898 18.9263L28.4861 27.8878L32.4973 27.8897L32.501 22.2915L38.1907 22.2954V18.9322L32.5029 18.9283L28.4898 18.9263Z" fill="#3A3A3A"/>
<path d="M38.5549 12.9793L28.4933 12.9734L28.4915 16.2879H38.553L38.5549 12.9793Z" fill="#3A3A3A"/>
<path d="M71.966 12.1064H67.9529V17.5351H67.9099C67.3585 16.7615 66.2539 16.4731 65.0446 16.4731C62.3698 16.4731 59.9493 18.6419 59.9717 22.2701C59.9717 25.9002 62.3493 27.8917 64.7904 27.8917C66.0857 27.8917 67.4857 27.426 68.2726 26.0542H68.3155L68.4651 27.6247H72.052C72.009 27.0499 71.9678 25.6118 71.9678 24.1952V12.1064H71.966ZM67.9529 22.2915C67.9529 22.5351 67.9529 22.8001 67.9099 23.0436C67.7828 23.8854 67.0819 24.5928 66.1473 24.5928C64.938 24.5928 64.067 23.6847 64.067 22.1142C64.067 20.7424 64.7249 19.5694 66.1679 19.5694C67.08 19.5694 67.781 20.2553 67.9305 21.1185C67.9511 21.2724 67.9511 21.4497 67.9511 21.6056V22.2915H67.9529Z" fill="#3A3A3A"/>
</g>
<defs>
<clipPath id="clip0_430_8642">
<rect width="94" height="40" fill="white"/>
</clipPath>
</defs>
</svg>
