<svg width="500" height="500" viewBox="0 0 500 500" fill="none" xmlns="http://www.w3.org/2000/svg">
<path opacity="0.15" d="M418.609 276.968L257.707 369.791C255.631 371.001 252.92 371.579 250.208 371.579C247.497 371.579 244.784 371.003 242.706 369.791L81.8408 276.981C79.7631 275.798 78.7251 274.238 78.7251 272.653C78.7251 271.529 79.2729 270.374 80.3684 269.394C80.7732 269.019 81.2633 268.644 81.8389 268.326L242.741 175.531C246.867 173.136 253.589 173.136 257.742 175.531L418.608 268.313C422.735 270.707 422.735 274.602 418.609 276.968Z" fill="#6B99D1"/>
<path d="M418.609 263.733L257.707 356.528C255.631 357.74 252.92 358.318 250.207 358.318C247.497 358.318 244.814 357.742 242.736 356.557L81.8408 263.746C79.7631 262.535 78.7251 260.977 78.7251 259.419C78.7251 257.834 79.7631 256.276 81.8408 255.091L103.651 242.515L242.743 162.268C246.869 159.875 253.591 159.875 257.744 162.268L418.609 255.078C422.735 257.444 422.735 261.339 418.609 263.733Z" fill="#DCEEFF"/>
<path d="M250.207 327.045V358.318C247.497 358.318 244.814 357.742 242.736 356.557L81.8408 263.746C79.7631 262.535 78.7251 260.977 78.7251 259.419V232.329C78.7251 231.205 79.2729 230.05 80.3684 229.07L103.649 242.513L250.207 327.045Z" fill="#A5CBFA"/>
<path d="M250.207 327.046V358.318C252.918 358.318 255.601 357.742 257.677 356.557L418.609 263.734C420.687 262.524 421.725 260.966 421.725 259.408V232.318C421.725 231.194 421.177 230.041 420.082 229.059L396.799 242.502L250.207 327.046Z" fill="#C8E2FF"/>
<path d="M418.609 236.644L257.707 329.467C255.631 330.677 252.92 331.255 250.208 331.255C247.497 331.255 244.784 330.677 242.706 329.467L81.8408 236.657C79.7631 235.474 78.7251 233.918 78.7251 232.329C78.7251 231.205 79.2729 230.05 80.3684 229.07C80.7732 228.695 81.2633 228.32 81.8389 228.002L242.741 135.207C246.867 132.812 253.589 132.812 257.742 135.207L418.608 227.989C422.735 230.383 422.735 234.278 418.609 236.644Z" fill="#DCEEFF"/>
<path d="M250.234 135.269C252.713 135.269 255.11 135.833 256.816 136.815L417.678 229.595C419.059 230.398 419.85 231.393 419.847 232.331C419.845 233.263 419.058 234.247 417.682 235.036L256.772 327.864C255.075 328.852 252.744 329.398 250.208 329.398C247.672 329.398 245.34 328.852 243.635 327.859L82.7605 235.043C81.3772 234.256 80.5843 233.266 80.5843 232.329C80.5843 231.712 80.9483 231.046 81.6334 230.429C81.9769 230.112 82.3464 229.842 82.7698 229.61L243.678 136.813C245.369 135.831 247.759 135.269 250.234 135.269ZM250.234 133.412C247.519 133.412 244.807 134.012 242.744 135.207L81.8414 228.002C81.2639 228.32 80.7737 228.695 80.3708 229.07C79.2753 230.05 78.7275 231.204 78.7275 232.329C78.7275 233.916 79.7655 235.474 81.8433 236.657L242.708 329.467C244.786 330.678 247.497 331.255 250.21 331.255C252.923 331.255 255.634 330.678 257.71 329.467L418.612 236.644C422.738 234.278 422.738 230.383 418.612 227.989L257.747 135.207C255.671 134.012 252.951 133.412 250.234 133.412Z" fill="white"/>
<path d="M245.24 154.052L114.494 229.456C111.735 231.049 111.735 233.634 114.494 235.225L245.205 310.619C247.964 312.212 252.439 312.212 255.198 310.619L385.941 235.214C388.7 233.623 388.7 231.038 385.941 229.445L255.232 154.052C252.474 152.459 248.001 152.459 245.24 154.052Z" fill="#8DB5E7"/>
<path d="M385.943 229.443L255.234 154.05C253.854 153.253 252.046 152.854 250.237 152.854V157.931L385.08 235.71L385.943 235.212C388.702 233.621 388.702 231.038 385.943 229.443Z" fill="#719DD3"/>
<path d="M250.239 152.858C248.43 152.856 246.62 153.255 245.24 154.052L114.494 229.456C111.735 231.049 111.735 233.634 114.494 235.225L115.358 235.725L250.239 157.933V152.858Z" fill="#719DD3"/>
<path d="M251.301 197.737L290.006 175.462C290.606 175.117 290.608 174.554 290.006 174.207L251.301 151.861C250.699 151.514 249.726 151.514 249.127 151.861L210.485 174.205C209.885 174.554 209.885 175.115 210.485 175.462L249.125 197.737C249.725 198.082 250.699 198.082 251.301 197.737Z" stroke="white" stroke-width="1.85679" stroke-miterlimit="10" stroke-linecap="round"/>
<path d="M250.247 183.142V272.658C252.544 272.658 254.843 272.151 256.595 271.141L339.408 223.329C342.914 221.303 345.757 216.382 345.757 212.335V183.142H250.247Z" fill="#2F9BFF"/>
<path d="M154.737 183.142V212.335C154.737 216.382 157.578 221.303 161.084 223.327L243.901 271.141C245.653 272.153 247.95 272.658 250.245 272.658V183.142H154.737Z" fill="#138DFD"/>
<path d="M243.869 236.783L157.367 186.807C153.861 184.784 153.863 181.503 157.368 179.479L243.901 129.518C247.406 127.494 253.088 127.494 256.592 129.518L343.126 179.479C346.632 181.503 346.632 184.784 343.126 186.807L256.56 236.785C253.055 238.809 247.373 238.809 243.869 236.783Z" fill="#5AB0FF"/>
<path d="M175.112 180.708L246.015 139.756C248.351 138.406 252.141 138.406 254.477 139.756L325.412 180.712C327.748 182.061 327.748 184.247 325.41 185.595L254.445 226.552C252.107 227.902 248.32 227.902 245.982 226.55L175.11 185.599C172.774 184.245 172.776 182.058 175.112 180.708Z" stroke="white" stroke-width="1.85679" stroke-miterlimit="10" stroke-linecap="round"/>
<path d="M252.329 149.995L308.132 181.92C309.3 182.594 309.3 183.688 308.132 184.364L252.329 216.327C251.162 217.001 249.266 217.001 248.098 216.327L192.771 184.375C191.603 183.701 191.603 182.606 192.771 181.932L248.098 149.997C249.266 149.321 251.16 149.321 252.329 149.995Z" stroke="white" stroke-width="1.85679" stroke-miterlimit="10" stroke-linecap="round"/>
<path d="M176.69 214.633C176.69 212.719 175.345 210.389 173.687 209.431C172.844 208.944 172.085 208.909 171.541 209.237L171.539 209.236L159.288 216.314C156.8 217.749 154.761 221.277 154.761 224.151V240.983C154.761 241.611 155.175 242.238 156.005 242.717C157.663 243.674 160.35 243.675 162.006 242.717C162.836 242.238 163.25 241.611 163.248 240.983V224.432C163.248 224.058 163.447 223.713 163.77 223.527L175.797 216.583C175.804 216.577 175.811 216.574 175.819 216.568L175.85 216.55L175.849 216.546C176.367 216.221 176.69 215.565 176.69 214.633Z" fill="url(#paint0_linear_1_1853)"/>
<path d="M195.065 225.288C195.065 223.373 193.72 221.045 192.06 220.087C191.217 219.598 190.46 219.565 189.914 219.894L189.912 219.892L177.659 226.968C175.171 228.405 173.134 231.933 173.134 234.807V251.639C173.134 252.265 173.548 252.893 174.376 253.372C176.034 254.33 178.721 254.33 180.377 253.372C181.206 252.894 181.62 252.265 181.62 251.637V235.086C181.62 234.713 181.82 234.367 182.143 234.182L194.168 227.237C194.175 227.233 194.183 227.228 194.192 227.224L194.224 227.206L194.222 227.2C194.742 226.877 195.065 226.222 195.065 225.288Z" fill="url(#paint1_linear_1_1853)"/>
<path d="M213.436 235.944C213.436 234.029 212.092 231.699 210.433 230.741C209.59 230.255 208.833 230.221 208.287 230.552V230.548L196.034 237.624C193.546 239.061 191.509 242.589 191.509 245.464V262.294C191.509 262.921 191.923 263.549 192.751 264.028C194.409 264.986 197.096 264.986 198.752 264.028C199.582 263.549 199.996 262.921 199.995 262.294V245.742C199.995 245.369 200.193 245.023 200.516 244.838L212.543 237.893C212.55 237.888 212.558 237.884 212.565 237.88L212.597 237.862L212.595 237.856C213.115 237.533 213.436 236.876 213.436 235.944Z" fill="url(#paint2_linear_1_1853)"/>
<path d="M231.811 246.6C231.811 244.684 230.466 242.355 228.808 241.397C227.965 240.911 227.206 240.875 226.662 241.206L226.66 241.204L214.407 248.282C211.919 249.717 209.882 253.245 209.882 256.12V272.951C209.882 273.579 210.296 274.207 211.124 274.684C212.782 275.642 215.469 275.642 217.125 274.686C217.955 274.207 218.367 273.579 218.367 272.95V256.4C218.367 256.027 218.566 255.68 218.891 255.496L230.917 248.55C230.925 248.546 230.932 248.542 230.94 248.537L230.971 248.518L230.968 248.512C231.487 248.189 231.811 247.532 231.811 246.6Z" fill="url(#paint3_linear_1_1853)"/>
<path d="M323.805 214.633C323.805 212.719 325.149 210.389 326.807 209.431C327.648 208.944 328.408 208.909 328.954 209.237L328.955 209.236L341.208 216.314C343.696 217.749 345.732 221.277 345.732 224.151V240.983C345.732 241.611 345.317 242.238 344.489 242.717C342.829 243.674 340.143 243.675 338.488 242.717C337.658 242.238 337.244 241.611 337.246 240.983V224.432C337.246 224.058 337.047 223.713 336.722 223.527L324.696 216.583C324.688 216.577 324.679 216.574 324.672 216.568L324.64 216.55L324.644 216.546C324.128 216.221 323.805 215.565 323.805 214.633Z" fill="url(#paint4_linear_1_1853)"/>
<path d="M305.43 225.288C305.43 223.373 306.774 221.045 308.432 220.087C309.275 219.598 310.033 219.565 310.579 219.894L310.581 219.892L322.834 226.968C325.322 228.405 327.359 231.933 327.359 234.807V251.639C327.359 252.265 326.945 252.893 326.116 253.372C324.458 254.33 321.772 254.33 320.115 253.372C319.285 252.895 318.871 252.265 318.873 251.637V235.086C318.873 234.713 318.674 234.367 318.349 234.182L306.323 227.237C306.316 227.234 306.308 227.228 306.299 227.224L306.267 227.206L306.271 227.2C305.753 226.877 305.43 226.222 305.43 225.288Z" fill="url(#paint5_linear_1_1853)"/>
<path d="M287.057 235.944C287.057 234.029 288.401 231.699 290.059 230.741C290.902 230.255 291.66 230.221 292.206 230.552L292.208 230.548L304.461 237.624C306.949 239.061 308.984 242.589 308.984 245.464V262.294C308.984 262.921 308.57 263.549 307.742 264.028C306.083 264.986 303.397 264.986 301.74 264.028C300.912 263.549 300.496 262.921 300.498 262.294V245.742C300.498 245.369 300.3 245.023 299.976 244.838L287.948 237.893C287.941 237.888 287.933 237.884 287.926 237.88L287.894 237.862L287.896 237.856C287.38 237.533 287.057 236.876 287.057 235.944Z" fill="url(#paint6_linear_1_1853)"/>
<path d="M268.682 246.6C268.682 244.684 270.028 242.355 271.685 241.397C272.528 240.911 273.287 240.875 273.831 241.206L273.833 241.204L286.086 248.282C288.576 249.717 290.613 253.245 290.613 256.12V272.951C290.613 273.579 290.197 274.207 289.369 274.684C287.711 275.642 285.024 275.642 283.368 274.686C282.539 274.207 282.125 273.579 282.125 272.95V256.4C282.125 256.027 281.927 255.68 281.604 255.496L269.575 248.55C269.568 248.546 269.56 248.542 269.553 248.537L269.521 248.518L269.523 248.512C269.005 248.189 268.682 247.532 268.682 246.6Z" fill="url(#paint7_linear_1_1853)"/>
<path d="M270.469 167.78L275.526 170.699L273.804 171.693L267.336 167.959L268.956 167.024L270.469 167.78ZM270.965 165.816L272.531 166.755C272.436 166.796 272.324 166.849 272.196 166.913C272.069 166.973 271.957 167.031 271.862 167.086C271.619 167.226 271.439 167.367 271.324 167.507C271.208 167.643 271.15 167.78 271.15 167.918C271.154 168.053 271.212 168.188 271.324 168.322C271.439 168.453 271.603 168.584 271.814 168.715L271.359 168.853C270.941 168.611 270.598 168.365 270.331 168.114C270.06 167.861 269.873 167.613 269.769 167.369C269.67 167.123 269.666 166.89 269.757 166.672C269.849 166.453 270.046 166.257 270.349 166.082C270.445 166.027 270.55 165.975 270.666 165.926C270.778 165.876 270.877 165.839 270.965 165.816Z" fill="white"/>
<path d="M270.289 173.861C269.787 174.151 269.257 174.364 268.699 174.503C268.137 174.638 267.573 174.704 267.007 174.699C266.445 174.692 265.901 174.622 265.375 174.489C264.845 174.353 264.365 174.161 263.934 173.912L263.695 173.774C263.205 173.491 262.827 173.192 262.559 172.877C262.292 172.562 262.139 172.243 262.099 171.921C262.063 171.597 262.153 171.28 262.368 170.972C262.579 170.661 262.92 170.37 263.39 170.099C263.849 169.834 264.331 169.643 264.837 169.526C265.343 169.409 265.855 169.362 266.373 169.385C266.895 169.405 267.414 169.493 267.928 169.647C268.438 169.799 268.93 170.012 269.404 170.285L270.122 170.699L264.981 173.667L263.833 173.005L267.282 171.013L267.151 170.938C266.911 170.8 266.654 170.702 266.379 170.644C266.104 170.582 265.825 170.568 265.542 170.603C265.26 170.637 264.985 170.732 264.718 170.886C264.49 171.017 264.345 171.158 264.281 171.31C264.217 171.462 264.223 171.62 264.299 171.783C264.379 171.944 264.514 172.11 264.706 172.28C264.897 172.446 265.136 172.611 265.423 172.777L265.662 172.915C265.921 173.065 266.196 173.182 266.487 173.267C266.782 173.35 267.077 173.398 267.372 173.412C267.671 173.423 267.962 173.398 268.244 173.336C268.531 173.272 268.8 173.167 269.052 173.022C269.362 172.843 269.592 172.641 269.739 172.418C269.886 172.19 269.934 171.949 269.882 171.693L271.628 171.735C271.688 171.926 271.69 172.141 271.634 172.38C271.582 172.617 271.451 172.863 271.239 173.119C271.024 173.372 270.707 173.619 270.289 173.861Z" fill="white"/>
<path d="M262.703 176.473L254.931 171.987L256.665 170.986L265.847 176.287L264.287 177.187L262.703 176.473ZM256.868 177.826L256.743 177.753C256.249 177.468 255.856 177.177 255.565 176.88C255.27 176.581 255.085 176.286 255.009 175.993C254.933 175.701 254.973 175.418 255.129 175.144C255.284 174.871 255.563 174.618 255.966 174.385C256.344 174.167 256.755 174.022 257.197 173.95C257.643 173.877 258.114 173.867 258.608 173.923C259.102 173.973 259.61 174.078 260.132 174.237C260.65 174.393 261.172 174.591 261.698 174.83L261.973 174.989C262.368 175.281 262.697 175.575 262.96 175.869C263.223 176.164 263.398 176.453 263.486 176.739C263.573 177.019 263.554 177.289 263.426 177.546C263.299 177.804 263.043 178.043 262.661 178.264C262.258 178.497 261.818 178.656 261.34 178.744C260.865 178.829 260.373 178.849 259.863 178.803C259.357 178.754 258.849 178.647 258.339 178.482C257.829 178.316 257.339 178.097 256.868 177.826ZM258.464 176.759L258.59 176.832C258.857 176.986 259.126 177.118 259.397 177.229C259.672 177.337 259.947 177.415 260.222 177.464C260.497 177.507 260.762 177.513 261.017 177.481C261.272 177.444 261.513 177.36 261.74 177.229C262.035 177.059 262.213 176.88 262.272 176.694C262.328 176.505 262.288 176.314 262.153 176.121C262.021 175.925 261.81 175.735 261.519 175.548L260.736 175.096C260.473 174.958 260.212 174.849 259.953 174.768C259.694 174.683 259.437 174.631 259.182 174.613C258.931 174.592 258.684 174.606 258.44 174.654C258.201 174.7 257.972 174.787 257.753 174.913C257.53 175.042 257.39 175.182 257.335 175.334C257.275 175.484 257.283 175.638 257.358 175.797C257.438 175.953 257.574 176.114 257.765 176.28C257.956 176.441 258.189 176.601 258.464 176.759Z" fill="white"/>
<path d="M250.03 179.544L255.117 182.481L253.396 183.475L246.927 179.741L248.541 178.809L250.03 179.544ZM251.405 180.628L250.939 180.897C250.46 180.621 250.092 180.337 249.833 180.045C249.57 179.75 249.414 179.46 249.366 179.175C249.315 178.888 249.37 178.614 249.534 178.354C249.697 178.089 249.97 177.846 250.353 177.626C250.656 177.451 250.976 177.316 251.315 177.222C251.654 177.128 252.009 177.084 252.379 177.091C252.754 177.095 253.146 177.161 253.557 177.287C253.971 177.412 254.406 177.605 254.86 177.867L258.985 180.248L257.251 181.249L253.121 178.865C252.834 178.699 252.571 178.593 252.331 178.547C252.092 178.501 251.863 178.504 251.644 178.557C251.425 178.606 251.204 178.694 250.98 178.823C250.749 178.957 250.594 179.099 250.514 179.251C250.438 179.401 250.426 179.555 250.478 179.714C250.53 179.868 250.636 180.023 250.795 180.179C250.955 180.336 251.158 180.485 251.405 180.628Z" fill="white"/>
<path d="M245.541 180.542L252.009 184.276L250.281 185.273L243.813 181.539L245.541 180.542ZM242.02 180.628C241.769 180.483 241.649 180.313 241.661 180.117C241.673 179.922 241.827 179.739 242.121 179.569C242.412 179.401 242.727 179.313 243.066 179.306C243.409 179.297 243.706 179.365 243.957 179.51C244.208 179.655 244.325 179.826 244.309 180.024C244.297 180.22 244.146 180.401 243.855 180.569C243.56 180.74 243.243 180.828 242.905 180.835C242.566 180.842 242.271 180.773 242.02 180.628Z" fill="white"/>
<path d="M236.669 183.082L245.373 188.107L243.58 189.142L234.876 184.117L236.669 183.082ZM243.855 183.227L245.253 184.034L241.296 186.319L239.897 185.511L243.855 183.227ZM240.555 180.839L241.96 181.65L237.584 184.176L236.179 183.365L240.555 180.839Z" fill="white"/>
<path d="M239.957 191.371C239.455 191.661 238.924 191.875 238.367 192.013C237.805 192.149 237.241 192.214 236.675 192.21C236.113 192.203 235.569 192.133 235.043 191.999C234.513 191.864 234.033 191.671 233.602 191.423L233.363 191.285C232.873 191.002 232.494 190.703 232.227 190.388C231.96 190.072 231.807 189.754 231.767 189.432C231.731 189.107 231.821 188.791 232.036 188.483C232.247 188.172 232.588 187.881 233.058 187.61C233.516 187.345 233.999 187.154 234.505 187.037C235.011 186.919 235.523 186.872 236.041 186.895C236.563 186.916 237.081 187.003 237.595 187.157C238.105 187.309 238.598 187.522 239.072 187.796L239.789 188.21L234.648 191.178L233.501 190.515L236.95 188.524L236.818 188.448C236.579 188.31 236.322 188.212 236.047 188.155C235.772 188.093 235.493 188.079 235.21 188.113C234.927 188.148 234.652 188.242 234.385 188.396C234.158 188.528 234.013 188.669 233.949 188.821C233.885 188.973 233.891 189.13 233.967 189.294C234.046 189.455 234.182 189.62 234.373 189.791C234.565 189.956 234.804 190.122 235.091 190.288L235.33 190.426C235.589 190.575 235.864 190.693 236.155 190.778C236.45 190.86 236.745 190.909 237.039 190.923C237.338 190.934 237.629 190.909 237.912 190.847C238.199 190.782 238.468 190.678 238.719 190.533C239.03 190.353 239.259 190.152 239.407 189.929C239.554 189.701 239.602 189.459 239.55 189.204L241.296 189.245C241.355 189.436 241.357 189.651 241.302 189.891C241.25 190.128 241.118 190.374 240.907 190.629C240.692 190.882 240.375 191.13 239.957 191.371Z" fill="white"/>
<path d="M225.066 191.499L229.914 197.031L228.007 198.132L222.537 191.24L223.751 190.54L225.066 191.499ZM234.248 194.529L224.659 191.734L222.98 190.985L224.205 190.277L236.161 193.425L234.248 194.529ZM230.9 192.721L232.305 193.532L227.708 196.186L226.303 195.375L230.9 192.721Z" fill="white"/>
<defs>
<linearGradient id="paint0_linear_1_1853" x1="154.761" y1="226.228" x2="176.69" y2="226.228" gradientUnits="userSpaceOnUse">
<stop stop-color="#C8E2FF"/>
<stop offset="0.1783" stop-color="#C2DEFC"/>
<stop offset="0.4099" stop-color="#B2D1F4"/>
<stop offset="0.671" stop-color="#97BCE7"/>
<stop offset="0.9518" stop-color="#729FD5"/>
<stop offset="1" stop-color="#6B99D1"/>
</linearGradient>
<linearGradient id="paint1_linear_1_1853" x1="173.135" y1="236.884" x2="195.064" y2="236.884" gradientUnits="userSpaceOnUse">
<stop stop-color="#C8E2FF"/>
<stop offset="0.1783" stop-color="#C2DEFC"/>
<stop offset="0.4099" stop-color="#B2D1F4"/>
<stop offset="0.671" stop-color="#97BCE7"/>
<stop offset="0.9518" stop-color="#729FD5"/>
<stop offset="1" stop-color="#6B99D1"/>
</linearGradient>
<linearGradient id="paint2_linear_1_1853" x1="191.509" y1="247.54" x2="213.437" y2="247.54" gradientUnits="userSpaceOnUse">
<stop stop-color="#C8E2FF"/>
<stop offset="0.1783" stop-color="#C2DEFC"/>
<stop offset="0.4099" stop-color="#B2D1F4"/>
<stop offset="0.671" stop-color="#97BCE7"/>
<stop offset="0.9518" stop-color="#729FD5"/>
<stop offset="1" stop-color="#6B99D1"/>
</linearGradient>
<linearGradient id="paint3_linear_1_1853" x1="209.882" y1="258.196" x2="231.811" y2="258.196" gradientUnits="userSpaceOnUse">
<stop stop-color="#C8E2FF"/>
<stop offset="0.1783" stop-color="#C2DEFC"/>
<stop offset="0.4099" stop-color="#B2D1F4"/>
<stop offset="0.671" stop-color="#97BCE7"/>
<stop offset="0.9518" stop-color="#729FD5"/>
<stop offset="1" stop-color="#6B99D1"/>
</linearGradient>
<linearGradient id="paint4_linear_1_1853" x1="345.732" y1="226.228" x2="323.805" y2="226.228" gradientUnits="userSpaceOnUse">
<stop stop-color="#C8E2FF"/>
<stop offset="0.1783" stop-color="#C2DEFC"/>
<stop offset="0.4099" stop-color="#B2D1F4"/>
<stop offset="0.671" stop-color="#97BCE7"/>
<stop offset="0.9518" stop-color="#729FD5"/>
<stop offset="1" stop-color="#6B99D1"/>
</linearGradient>
<linearGradient id="paint5_linear_1_1853" x1="327.359" y1="236.884" x2="305.431" y2="236.884" gradientUnits="userSpaceOnUse">
<stop stop-color="#C8E2FF"/>
<stop offset="0.1783" stop-color="#C2DEFC"/>
<stop offset="0.4099" stop-color="#B2D1F4"/>
<stop offset="0.671" stop-color="#97BCE7"/>
<stop offset="0.9518" stop-color="#729FD5"/>
<stop offset="1" stop-color="#6B99D1"/>
</linearGradient>
<linearGradient id="paint6_linear_1_1853" x1="308.985" y1="247.54" x2="287.057" y2="247.54" gradientUnits="userSpaceOnUse">
<stop stop-color="#C8E2FF"/>
<stop offset="0.1783" stop-color="#C2DEFC"/>
<stop offset="0.4099" stop-color="#B2D1F4"/>
<stop offset="0.671" stop-color="#97BCE7"/>
<stop offset="0.9518" stop-color="#729FD5"/>
<stop offset="1" stop-color="#6B99D1"/>
</linearGradient>
<linearGradient id="paint7_linear_1_1853" x1="290.613" y1="258.196" x2="268.683" y2="258.196" gradientUnits="userSpaceOnUse">
<stop stop-color="#C8E2FF"/>
<stop offset="0.1783" stop-color="#C2DEFC"/>
<stop offset="0.4099" stop-color="#B2D1F4"/>
<stop offset="0.671" stop-color="#97BCE7"/>
<stop offset="0.9518" stop-color="#729FD5"/>
<stop offset="1" stop-color="#6B99D1"/>
</linearGradient>
</defs>
</svg>
